{
    "asset" : {
        "generator" : "Khronos glTF Blender I/O v3.4.50",
        "version" : "2.0"
    },
    "scene" : 0,
    "scenes" : [
        {
            "name" : "Scene",
            "nodes" : [
                0
            ]
        }
    ],
    "nodes" : [
        {
            "mesh" : 0,
            "name" : "chocolate_splash_free_005_grp",
            "scale" : [
                100,
                100,
                100
            ]
        }
    ],
    "materials" : [
        {
            "doubleSided" : true,
            "name" : "chocolate_splash_free_005_mat.001",
            "normalTexture" : {
                "index" : 0
            },
            "occlusionTexture" : {
                "index" : 1
            },
            "pbrMetallicRoughness" : {
                "baseColorTexture" : {
                    "index" : 2
                },
                "metallicRoughnessTexture" : {
                    "index" : 1
                }
            }
        }
    ],
    "meshes" : [
        {
            "name" : "low",
            "primitives" : [
                {
                    "attributes" : {
                        "COLOR_0" : 0,
                        "POSITION" : 1,
                        "TEXCOORD_0" : 2,
                        "NORMAL" : 3
                    },
                    "indices" : 4,
                    "material" : 0
                }
            ]
        }
    ],
    "textures" : [
        {
            "sampler" : 0,
            "source" : 0
        },
        {
            "sampler" : 0,
            "source" : 1
        },
        {
            "sampler" : 0,
            "source" : 2
        }
    ],
    "images" : [
        {
            "mimeType" : "image/png",
            "name" : "Chocolate_Splash_Free_005_norm",
            "uri" : "Chocolate_Splash_Free_005_norm.png"
        },
        {
            "mimeType" : "image/png",
            "name" : "Chocolate_Splash_Free_005_ao-Chocolate_Splash_Free_005_rough-Chocolate_Splash_Free_005_metal",
            "uri" : "Chocolate_Splash_Free_005_ao-Chocolate_Splash_Free_005_rough-Chocolate_Splash_Free_005_metal.png"
        },
        {
            "mimeType" : "image/png",
            "name" : "Chocolate_Splash_Free_005_bcolor",
            "uri" : "Chocolate_Splash_Free_005_bcolor.png"
        }
    ],
    "accessors" : [
        {
            "bufferView" : 0,
            "componentType" : 5123,
            "count" : 3211,
            "normalized" : true,
            "type" : "VEC4"
        },
        {
            "bufferView" : 1,
            "componentType" : 5126,
            "count" : 3211,
            "max" : [
                0.2585013210773468,
                0.22533239424228668,
                0.20663313567638397
            ],
            "min" : [
                -0.2585013210773468,
                0,
                -0.20663313567638397
            ],
            "type" : "VEC3"
        },
        {
            "bufferView" : 2,
            "componentType" : 5126,
            "count" : 3211,
            "type" : "VEC2"
        },
        {
            "bufferView" : 3,
            "componentType" : 5126,
            "count" : 3211,
            "type" : "VEC3"
        },
        {
            "bufferView" : 4,
            "componentType" : 5123,
            "count" : 17868,
            "type" : "SCALAR"
        }
    ],
    "bufferViews" : [
        {
            "buffer" : 0,
            "byteLength" : 25688,
            "byteOffset" : 0,
            "target" : 34962
        },
        {
            "buffer" : 0,
            "byteLength" : 38532,
            "byteOffset" : 25688,
            "target" : 34962
        },
        {
            "buffer" : 0,
            "byteLength" : 25688,
            "byteOffset" : 64220,
            "target" : 34962
        },
        {
            "buffer" : 0,
            "byteLength" : 38532,
            "byteOffset" : 89908,
            "target" : 34962
        },
        {
            "buffer" : 0,
            "byteLength" : 35736,
            "byteOffset" : 128440,
            "target" : 34963
        }
    ],
    "samplers" : [
        {
            "magFilter" : 9729,
            "minFilter" : 9987
        }
    ],
    "buffers" : [
        {
            "byteLength" : 164176,
            "uri" : "Chocolate_Splash_Free_005.bin"
        }
    ]
}
